<svg width="158" height="46" viewBox="0 0 158 46" fill="none" xmlns="http://www.w3.org/2000/svg">
<path d="M156.403 40.0597C156.403 42.4728 154.407 44.4274 151.939 44.4274H5.86923C3.40231 44.4274 1.3999 42.4728 1.3999 40.0597V5.22798C1.3999 2.81601 3.40231 0.854492 5.86923 0.854492H151.938C154.407 0.854492 156.401 2.81601 156.401 5.22798L156.403 40.0597Z" fill="black"/>
<path d="M35.5088 22.3965C35.4751 18.7479 38.5728 16.9729 38.7145 16.8902C36.9601 14.3964 34.2409 14.0556 33.2853 14.0284C31.0015 13.7941 28.7862 15.3609 27.6228 15.3609C26.4362 15.3609 24.6447 14.0511 22.7138 14.0896C20.2291 14.1269 17.9046 15.5295 16.6298 17.7076C13.9988 22.1486 15.961 28.6748 18.4817 32.2645C19.7426 34.0226 21.216 35.9855 23.1446 35.9165C25.0313 35.8406 25.7361 34.7437 28.0129 34.7437C30.2689 34.7437 30.9307 35.9165 32.8975 35.8723C34.9224 35.8406 36.1973 34.1063 37.4141 32.3324C38.8712 30.3174 39.4564 28.3329 39.4796 28.2311C39.432 28.2152 35.5471 26.7696 35.5088 22.3965Z" fill="white"/>
<path d="M31.7934 11.667C32.8081 10.4297 33.5025 8.74634 33.3097 7.03809C31.841 7.10148 30.0041 8.02862 28.9464 9.23878C28.0106 10.3052 27.1746 12.053 27.3906 13.6968C29.0405 13.8168 30.7345 12.8851 31.7934 11.667Z" fill="white"/>
<path d="M62.8146 35.6639H60.1778L58.7335 31.2387H53.713L52.3371 35.6639H49.77L54.744 20.5986H57.8162L62.8146 35.6639ZM58.2981 29.3822L56.9919 25.4483C56.8537 25.0464 56.5948 24.1 56.2128 22.6103H56.1663C56.0142 23.251 55.7693 24.1974 55.4326 25.4483L54.1496 29.3822H58.2981Z" fill="white"/>
<path d="M75.6069 30.0991C75.6069 31.9466 75.0949 33.4069 74.0708 34.479C73.1535 35.4333 72.0145 35.9099 70.6549 35.9099C69.1873 35.9099 68.1331 35.3959 67.491 34.368H67.4446V40.0905H64.9692V28.3773C64.9692 27.2158 64.9378 26.0237 64.8774 24.8011H67.0544L67.1926 26.523H67.2391C68.0646 25.2257 69.3174 24.5781 70.9986 24.5781C72.3129 24.5781 73.4101 25.0841 74.2879 26.0973C75.168 27.1116 75.6069 28.4452 75.6069 30.0991ZM73.085 30.1874C73.085 29.1301 72.8412 28.2584 72.3512 27.5724C71.816 26.8569 71.0973 26.4992 70.1963 26.4992C69.5856 26.4992 69.0306 26.6984 68.5348 27.0913C68.0379 27.4875 67.7128 28.0048 67.5607 28.6456C67.484 28.9444 67.4457 29.1889 67.4457 29.3814V31.1926C67.4457 31.9828 67.6942 32.6496 68.1911 33.1941C68.6881 33.7386 69.3336 34.0103 70.1278 34.0103C71.0601 34.0103 71.7858 33.6594 72.3048 32.9598C72.825 32.259 73.085 31.3353 73.085 30.1874Z" fill="white"/>
<path d="M88.4212 30.0991C88.4212 31.9466 87.9091 33.4069 86.8839 34.479C85.9678 35.4333 84.8288 35.9099 83.4692 35.9099C82.0016 35.9099 80.9473 35.3959 80.3064 34.368H80.26V40.0905H77.7846V28.3773C77.7846 27.2158 77.7532 26.0237 77.6929 24.8011H79.8699L80.008 26.523H80.0545C80.8788 25.2257 82.1316 24.5781 83.814 24.5781C85.1272 24.5781 86.2244 25.0841 87.1045 26.0973C87.9811 27.1116 88.4212 28.4452 88.4212 30.0991ZM85.8993 30.1874C85.8993 29.1301 85.6543 28.2584 85.1644 27.5724C84.6291 26.8569 83.9127 26.4992 83.0106 26.4992C82.3987 26.4992 81.8449 26.6984 81.3479 27.0913C80.851 27.4875 80.527 28.0048 80.3749 28.6456C80.2995 28.9444 80.26 29.1889 80.26 29.3814V31.1926C80.26 31.9828 80.5085 32.6496 81.0031 33.1941C81.5 33.7375 82.1456 34.0103 82.9421 34.0103C83.8744 34.0103 84.6001 33.6594 85.1191 32.9598C85.6392 32.259 85.8993 31.3353 85.8993 30.1874Z" fill="white"/>
<path d="M102.749 31.4391C102.749 32.7206 102.293 33.7632 101.377 34.5681C100.37 35.4477 98.9689 35.8869 97.1681 35.8869C95.5055 35.8869 94.1725 35.5745 93.1636 34.9485L93.7371 32.9368C94.8239 33.5775 96.0163 33.899 97.3156 33.899C98.2479 33.899 98.9736 33.693 99.4949 33.2832C100.014 32.8734 100.273 32.3232 100.273 31.6372C100.273 31.0259 100.059 30.5108 99.6307 30.0931C99.2046 29.6754 98.4929 29.2871 97.499 28.9282C94.7937 27.9445 93.4422 26.5034 93.4422 24.6084C93.4422 23.3699 93.916 22.3545 94.8645 21.5643C95.8097 20.773 97.0706 20.3779 98.6473 20.3779C100.053 20.3779 101.221 20.6168 102.154 21.0934L101.535 23.0609C100.664 22.599 99.6795 22.3681 98.5776 22.3681C97.7068 22.3681 97.0265 22.5775 96.5388 22.9941C96.1266 23.3665 95.92 23.8205 95.92 24.3582C95.92 24.9536 96.1556 25.4461 96.6294 25.8332C97.0415 26.191 97.7904 26.5781 98.8772 26.9959C100.207 27.5177 101.183 28.1279 101.811 28.8275C102.437 29.5248 102.749 30.3976 102.749 31.4391Z" fill="white"/>
<path d="M110.933 26.6127H108.205V31.8869C108.205 33.2284 108.685 33.8985 109.649 33.8985C110.091 33.8985 110.458 33.8612 110.749 33.7865L110.817 35.6192C110.329 35.797 109.687 35.8864 108.892 35.8864C107.914 35.8864 107.15 35.5955 106.599 35.0147C106.05 34.4329 105.773 33.457 105.773 32.0861V26.6104H104.148V24.7992H105.773V22.8102L108.205 22.0947V24.7992H110.933V26.6127Z" fill="white"/>
<path d="M123.243 30.1431C123.243 31.8129 122.753 33.1838 121.776 34.2558C120.751 35.3595 119.39 35.9097 117.694 35.9097C116.059 35.9097 114.757 35.3811 113.787 34.3237C112.816 33.2664 112.331 31.9317 112.331 30.3231C112.331 28.6397 112.83 27.2609 113.832 26.1889C114.832 25.1157 116.181 24.5791 117.877 24.5791C119.512 24.5791 120.827 25.1078 121.82 26.1662C122.77 27.193 123.243 28.5186 123.243 30.1431ZM120.675 30.2212C120.675 29.2193 120.456 28.3601 120.011 27.6435C119.492 26.7764 118.75 26.344 117.789 26.344C116.794 26.344 116.038 26.7775 115.519 27.6435C115.074 28.3613 114.855 29.2341 114.855 30.2665C114.855 31.2683 115.074 32.1276 115.519 32.843C116.054 33.7102 116.802 34.1426 117.767 34.1426C118.712 34.1426 119.454 33.7011 119.989 32.8204C120.445 32.0902 120.675 31.2219 120.675 30.2212Z" fill="white"/>
<path d="M131.291 26.9237C131.046 26.8796 130.784 26.8569 130.51 26.8569C129.639 26.8569 128.966 27.1773 128.492 27.8192C128.08 28.3852 127.874 29.1006 127.874 29.9644V35.6642H125.399L125.422 28.2222C125.422 26.9701 125.391 25.8302 125.33 24.8023H127.486L127.576 26.8807H127.645C127.906 26.1664 128.318 25.5913 128.882 25.16C129.434 24.7717 130.03 24.5781 130.672 24.5781C130.9 24.5781 131.107 24.594 131.291 24.6223V26.9237Z" fill="white"/>
<path d="M142.361 29.7176C142.361 30.1501 142.332 30.5146 142.27 30.8123H134.844C134.873 31.8855 135.232 32.7062 135.922 33.2722C136.548 33.7783 137.357 34.0318 138.351 34.0318C139.45 34.0318 140.453 33.8609 141.356 33.5179L141.743 35.1933C140.689 35.6416 139.444 35.8646 138.008 35.8646C136.281 35.8646 134.924 35.3688 133.938 34.3782C132.953 33.3877 132.459 32.0576 132.459 30.3889C132.459 28.7509 132.918 27.3867 133.837 26.2989C134.798 25.1374 136.097 24.5566 137.732 24.5566C139.338 24.5566 140.553 25.1374 141.379 26.2989C142.032 27.2215 142.361 28.3626 142.361 29.7176ZM140.001 29.0916C140.017 28.3762 139.855 27.7581 139.52 27.2362C139.091 26.5649 138.433 26.2298 137.547 26.2298C136.738 26.2298 136.08 26.557 135.577 27.2135C135.165 27.7354 134.92 28.3614 134.844 29.0905H140.001V29.0916Z" fill="white"/>
<path d="M57.4803 11.3309C57.4803 12.6633 57.0705 13.6663 56.2519 14.3399C55.4937 14.9614 54.4163 15.2727 53.0206 15.2727C52.3286 15.2727 51.7365 15.2432 51.2407 15.1844V7.9042C51.8874 7.80232 52.5841 7.75024 53.3365 7.75024C54.6659 7.75024 55.6679 8.03212 56.3436 8.59588C57.1006 9.23322 57.4803 10.1445 57.4803 11.3309ZM56.1973 11.3637C56.1973 10.5 55.9628 9.83773 55.4937 9.37586C55.0247 8.91512 54.3396 8.68418 53.4375 8.68418C53.0543 8.68418 52.7281 8.70908 52.4575 8.76116V14.2957C52.6073 14.3184 52.8813 14.3285 53.2796 14.3285C54.2107 14.3285 54.9294 14.0761 55.4357 13.5712C55.9419 13.0663 56.1973 12.3305 56.1973 11.3637Z" fill="white"/>
<path d="M64.283 12.4945C64.283 13.3152 64.0427 13.9876 63.562 14.5152C63.0581 15.0574 62.3905 15.328 61.5568 15.328C60.7534 15.328 60.1136 15.0687 59.6364 14.548C59.1604 14.0284 58.9224 13.3729 58.9224 12.5828C58.9224 11.7564 59.1673 11.0783 59.6596 10.5519C60.1519 10.0255 60.8137 9.76172 61.6474 9.76172C62.4509 9.76172 63.0964 10.021 63.5852 10.5406C64.0496 11.0455 64.283 11.6975 64.283 12.4945ZM63.0209 12.533C63.0209 12.0405 62.9118 11.6183 62.6947 11.2662C62.4392 10.8406 62.0758 10.6277 61.6033 10.6277C61.1145 10.6277 60.7429 10.8406 60.4875 11.2662C60.2692 11.6183 60.1612 12.0473 60.1612 12.5545C60.1612 13.0469 60.2704 13.4692 60.4875 13.8212C60.751 14.2469 61.1179 14.4597 61.5917 14.4597C62.0561 14.4597 62.4207 14.2435 62.6831 13.8099C62.9083 13.451 63.0209 13.0254 63.0209 12.533Z" fill="white"/>
<path d="M73.4042 9.87012L71.6916 15.2066H70.577L69.8676 12.8893C69.6876 12.3108 69.5413 11.7357 69.4276 11.1652H69.4055C69.2998 11.7516 69.1535 12.3255 68.9655 12.8893L68.2119 15.2066H67.0845L65.4741 9.87012H66.7246L67.3434 12.407C67.4932 13.007 67.6163 13.5787 67.715 14.1198H67.737C67.8276 13.6738 67.9774 13.1055 68.1887 12.4183L68.9655 9.87125H69.957L70.7013 12.364C70.8812 12.9719 71.0275 13.5572 71.1401 14.1209H71.1738C71.2562 13.5719 71.3805 12.9866 71.5453 12.364L72.2095 9.87125H73.4042V9.87012Z" fill="white"/>
<path d="M79.713 15.2063H78.4963V12.1498C78.4963 11.208 78.1294 10.737 77.3932 10.737C77.0321 10.737 76.7407 10.8661 76.5143 11.1253C76.2902 11.3846 76.1764 11.6902 76.1764 12.04V15.2052H74.9596V11.3947C74.9596 10.9261 74.9446 10.4178 74.9155 9.86762H75.9849L76.0418 10.7019H76.0754C76.2171 10.4427 76.4284 10.2287 76.7059 10.0578C77.0356 9.85856 77.4049 9.75781 77.8089 9.75781C78.3198 9.75781 78.7447 9.91856 79.0826 10.2412C79.5029 10.6363 79.713 11.2261 79.713 12.0094V15.2063Z" fill="white"/>
<path d="M83.0677 15.2069H81.8521V7.42188H83.0677V15.2069Z" fill="white"/>
<path d="M90.2313 12.4945C90.2313 13.3152 89.9909 13.9876 89.5102 14.5152C89.0063 15.0574 88.3376 15.328 87.5051 15.328C86.7005 15.328 86.0607 15.0687 85.5847 14.548C85.1086 14.0284 84.8706 13.3729 84.8706 12.5828C84.8706 11.7564 85.1156 11.0783 85.6079 10.5519C86.1002 10.0255 86.762 9.76172 87.5945 9.76172C88.3991 9.76172 89.0435 10.021 89.5335 10.5406C89.9979 11.0455 90.2313 11.6975 90.2313 12.4945ZM88.968 12.533C88.968 12.0405 88.8589 11.6183 88.6418 11.2662C88.3875 10.8406 88.0229 10.6277 87.5515 10.6277C87.0615 10.6277 86.69 10.8406 86.4357 11.2662C86.2174 11.6183 86.1095 12.0473 86.1095 12.5545C86.1095 13.0469 86.2186 13.4692 86.4357 13.8212C86.6993 14.2469 87.0662 14.4597 87.5399 14.4597C88.0043 14.4597 88.3677 14.2435 88.6301 13.8099C88.8566 13.451 88.968 13.0254 88.968 12.533Z" fill="white"/>
<path d="M96.1208 15.2068H95.0282L94.9376 14.5921H94.904C94.5301 15.0823 93.9972 15.328 93.3052 15.328C92.7885 15.328 92.3705 15.1661 92.0559 14.8446C91.7703 14.5525 91.6274 14.1891 91.6274 13.7578C91.6274 13.1058 91.9061 12.6088 92.4669 12.2647C93.0265 11.9205 93.8137 11.7518 94.8273 11.7598V11.6602C94.8273 10.9572 94.4488 10.6062 93.6907 10.6062C93.1508 10.6062 92.6747 10.7387 92.2637 11.0013L92.0164 10.2225C92.5249 9.91568 93.1531 9.76172 93.8938 9.76172C95.3243 9.76172 96.0418 10.4975 96.0418 11.9692V13.9344C96.0418 14.4676 96.0685 14.8921 96.1208 15.2068ZM94.8575 13.3729V12.5499C93.5153 12.5273 92.8442 12.8862 92.8442 13.6254C92.8442 13.9039 92.9209 14.1122 93.0776 14.2514C93.2344 14.3906 93.4341 14.4597 93.6721 14.4597C93.9391 14.4597 94.1888 14.3771 94.4163 14.2129C94.6451 14.0476 94.7855 13.8382 94.8378 13.5812C94.8506 13.5235 94.8575 13.4533 94.8575 13.3729Z" fill="white"/>
<path d="M103.035 15.2069H101.955L101.898 14.35H101.865C101.52 15.002 100.932 15.3281 100.107 15.3281C99.4472 15.3281 98.898 15.0756 98.4626 14.5707C98.0272 14.0658 97.8101 13.4104 97.8101 12.6055C97.8101 11.7417 98.0458 11.0421 98.5195 10.5078C98.9781 10.0097 99.54 9.76067 100.209 9.76067C100.944 9.76067 101.458 10.0018 101.751 10.4852H101.774V7.42188H102.992V13.7692C102.992 14.2888 103.006 14.7677 103.035 15.2069ZM101.774 12.9564V12.0666C101.774 11.9127 101.762 11.7882 101.74 11.6931C101.672 11.4078 101.524 11.1678 101.3 10.9742C101.074 10.7806 100.801 10.6833 100.486 10.6833C100.032 10.6833 99.6771 10.8588 99.4158 11.2108C99.1569 11.5629 99.0257 12.0123 99.0257 12.5613C99.0257 13.0889 99.1499 13.5168 99.3996 13.8462C99.6631 14.1971 100.018 14.3726 100.463 14.3726C100.863 14.3726 101.182 14.2266 101.424 13.9334C101.659 13.6628 101.774 13.3368 101.774 12.9564Z" fill="white"/>
<path d="M113.442 12.4945C113.442 13.3152 113.202 13.9876 112.721 14.5152C112.217 15.0574 111.551 15.328 110.716 15.328C109.914 15.328 109.274 15.0687 108.796 14.548C108.32 14.0284 108.082 13.3729 108.082 12.5828C108.082 11.7564 108.327 11.0783 108.819 10.5519C109.311 10.0255 109.973 9.76172 110.808 9.76172C111.61 9.76172 112.257 10.021 112.744 10.5406C113.209 11.0455 113.442 11.6975 113.442 12.4945ZM112.181 12.533C112.181 12.0405 112.072 11.6183 111.855 11.2662C111.598 10.8406 111.236 10.6277 110.762 10.6277C110.275 10.6277 109.903 10.8406 109.647 11.2662C109.428 11.6183 109.32 12.0473 109.32 12.5545C109.32 13.0469 109.43 13.4692 109.647 13.8212C109.91 14.2469 110.277 14.4597 110.751 14.4597C111.215 14.4597 111.581 14.2435 111.843 13.8099C112.067 13.451 112.181 13.0254 112.181 12.533Z" fill="white"/>
<path d="M119.984 15.2063H118.769V12.1498C118.769 11.208 118.402 10.737 117.665 10.737C117.303 10.737 117.012 10.8661 116.787 11.1253C116.562 11.3846 116.449 11.6902 116.449 12.04V15.2052H115.231V11.3947C115.231 10.9261 115.217 10.4178 115.188 9.86762H116.256L116.313 10.7019H116.347C116.49 10.4427 116.701 10.2287 116.977 10.0578C117.308 9.85856 117.676 9.75781 118.081 9.75781C118.591 9.75781 119.016 9.91856 119.354 10.2412C119.775 10.6363 119.984 11.2261 119.984 12.0094V15.2063Z" fill="white"/>
<path d="M128.174 10.7597H126.834V13.352C126.834 14.0109 127.072 14.3403 127.543 14.3403C127.762 14.3403 127.943 14.3222 128.086 14.2848L128.117 15.1848C127.877 15.2731 127.561 15.3173 127.172 15.3173C126.691 15.3173 126.317 15.1746 126.047 14.8894C125.775 14.6041 125.64 14.1241 125.64 13.4505V10.7597H124.84V9.87101H125.64V8.89293L126.833 8.54199V9.86988H128.173V10.7597H128.174Z" fill="white"/>
<path d="M134.615 15.2069H133.397V12.1731C133.397 11.2165 133.03 10.7376 132.295 10.7376C131.731 10.7376 131.346 11.015 131.134 11.5697C131.098 11.6863 131.077 11.8289 131.077 11.9965V15.2058H129.862V7.42188H131.077V10.638H131.101C131.484 10.0527 132.033 9.76067 132.745 9.76067C133.249 9.76067 133.665 9.92142 133.996 10.2441C134.409 10.6459 134.615 11.2437 134.615 12.0338V15.2069Z" fill="white"/>
<path d="M141.259 12.2856C141.259 12.4984 141.243 12.6773 141.214 12.8233H137.565C137.581 13.3509 137.755 13.7527 138.093 14.0312C138.402 14.2803 138.8 14.4048 139.288 14.4048C139.828 14.4048 140.32 14.321 140.763 14.1524L140.954 14.9765C140.435 15.1961 139.824 15.3059 139.117 15.3059C138.269 15.3059 137.602 15.0625 137.119 14.5757C136.633 14.089 136.393 13.4358 136.393 12.6162C136.393 11.8113 136.617 11.1411 137.069 10.6068C137.54 10.0363 138.178 9.75098 138.982 9.75098C139.769 9.75098 140.367 10.0363 140.771 10.6068C141.098 11.0596 141.259 11.62 141.259 12.2856ZM140.098 11.9788C140.107 11.6268 140.027 11.3234 139.862 11.0675C139.651 10.7381 139.329 10.5728 138.894 10.5728C138.497 10.5728 138.173 10.7336 137.926 11.0562C137.724 11.3132 137.604 11.62 137.565 11.9788H140.098Z" fill="white"/>
</svg>
