<svg width="94" height="94" viewBox="0 0 94 94" fill="none" xmlns="http://www.w3.org/2000/svg">
<path d="M93.7284 48.4087C93.8651 55.9071 93.4321 63.3826 92.8623 70.8582C92.8733 71.449 92.7611 72.0356 92.5327 72.5805C92.3044 73.1255 91.9649 73.6169 91.536 74.0233C91.107 74.4297 90.5981 74.7422 90.0416 74.9409C89.4851 75.1396 88.8933 75.22 88.304 75.1771H72.7831C71.4498 75.1771 70.9484 75.5076 70.9826 76.9207C71.0738 80.818 70.9826 84.7039 70.9826 88.5898C71.0712 89.3988 70.9088 90.2155 70.5174 90.929C70.126 91.6425 69.5245 92.2183 68.7946 92.5783C68.0643 92.9445 67.2421 93.0868 66.4312 92.9875C65.6203 92.8881 64.8567 92.5516 64.2364 92.0199C56.8292 86.7323 49.422 81.4903 41.9693 76.2141C41.0555 75.5344 39.9398 75.1812 38.8013 75.2113H25.1265C24.5452 75.2518 23.9619 75.1728 23.4124 74.9789C22.8629 74.7851 22.359 74.4807 21.9318 74.0845C21.5047 73.6883 21.1632 73.2087 20.9287 72.6753C20.6942 72.142 20.5715 71.5662 20.5682 70.9835C20.5682 70.4593 20.5682 69.9351 20.477 69.4223C20.0896 66.8811 20.3973 67.3027 22.5511 67.223C23.5311 67.223 23.9071 67.5079 23.9299 68.4993C24.0439 72.5334 24.1806 71.7471 27.4854 71.7812C31.4739 71.8268 35.4585 71.8268 39.4394 71.7812C40.9629 71.7565 42.4524 72.2329 43.6786 73.1373C51.0174 78.3186 58.3676 83.515 65.7292 88.7266C66.1395 89.0229 66.5269 89.5927 67.0853 89.3534C67.6437 89.114 67.4614 88.3391 67.4614 87.8149V76.2939C67.4614 73.2399 68.977 71.7357 72.0196 71.7357H87.2556C89.1815 71.7357 89.2727 71.6217 89.4208 69.6502C90.4045 57.1721 90.5111 44.6402 89.7399 32.1471C89.6259 30.3466 89.4664 28.5575 89.4094 26.757C89.4094 25.4237 88.7826 24.9907 87.4607 25.0134C82.8113 25.0818 78.1619 25.0134 73.5125 25.0704C71.9285 25.0704 72.0538 24.2955 71.9968 23.2357C71.9398 22.1759 72.2475 21.6517 73.5694 21.6517C78.4468 21.7315 83.3355 21.6517 88.2243 21.6517C88.8146 21.6087 89.4073 21.6895 89.9646 21.8889C90.5219 22.0882 91.0314 22.4018 91.4605 22.8094C91.8896 23.2171 92.2288 23.7098 92.4565 24.2562C92.6841 24.8025 92.7952 25.3903 92.7825 25.9821C93.4093 33.4348 93.8309 40.9104 93.7284 48.4087Z" fill="#228F53"/>
<path d="M66.6976 4.29618C66.4469 1.47005 64.9085 1.21752e-05 62.1051 1.21752e-05H5.46868C4.92166 -0.0307138 4.37406 0.049057 3.85854 0.234566C3.34302 0.420075 2.87015 0.70752 2.46814 1.07975C2.06613 1.45199 1.74321 1.90138 1.51865 2.40113C1.2941 2.90088 1.1725 3.44073 1.16112 3.98849C0.887624 7.81744 0.568545 11.635 0.443193 15.4753C0.0669949 25.2348 0.295345 35.0081 1.12693 44.7394C1.42322 47.4743 2.93884 49.0014 5.63961 49.0014C9.38879 49.0014 13.138 49.0583 16.8757 49.0014C18.2318 49.0014 18.6079 49.4458 18.5623 50.7335C18.5167 53.1494 18.7104 55.6336 18.5167 58.1179C18.1862 61.8101 22.0266 63.8157 25.1604 61.8899C31.6673 57.8216 38.3338 54.0041 44.8977 50.0384C46.0232 49.3345 47.3312 48.9778 48.6582 49.0128H62.4584C63.5387 49.0528 64.5907 48.6625 65.3834 47.9275C66.1761 47.1924 66.6446 46.1729 66.6862 45.0926C66.9597 41.2637 67.2901 37.4348 67.4155 33.6058C67.776 23.8305 67.5363 14.0422 66.6976 4.29618ZM64.0994 28.0447C64.0082 33.4463 63.7347 38.8478 63.3245 44.238C63.2219 45.3775 62.5609 45.5713 61.6037 45.5713H47.7922C46.3083 45.5374 44.8469 45.9374 43.5872 46.7222C36.9777 50.6499 30.372 54.5776 23.7701 58.5053C23.3029 58.7902 22.8243 59.2916 22.2317 58.9042C21.6391 58.5167 21.9354 57.9356 21.9354 57.4455V49.9016C21.9354 47.1211 20.397 45.5713 17.6506 45.5599H6.40312C5.05844 45.5599 4.60261 45.1382 4.51144 43.7821C3.97585 36.2382 3.70235 28.6601 3.78212 21.0706C3.87329 15.6121 4.14678 10.1763 4.56842 4.74061C4.67098 3.41871 5.49147 3.41871 6.43731 3.41871H61.2504C63.0851 3.41871 63.1421 3.52127 63.2903 5.31039C63.8828 12.8771 64.1677 20.5122 64.0994 28.0447Z" fill="#228F53"/>
</svg>
