<svg width="8" height="14" viewBox="0 0 8 14" fill="none" xmlns="http://www.w3.org/2000/svg">
<path d="M0.992341 7.25413H2.38683V12.9952C2.38683 13.1086 2.47867 13.2004 2.59202 13.2004H4.95645C5.0698 13.2004 5.16164 13.1086 5.16164 12.9952V7.28115H6.76472C6.86896 7.28115 6.95665 7.20294 6.96855 7.0994L7.21203 4.98588C7.21872 4.92773 7.20029 4.8695 7.16138 4.82588C7.12244 4.78221 7.06671 4.75722 7.00823 4.75722H5.16169V3.43236C5.16169 3.03298 5.37673 2.83046 5.80088 2.83046H7.00823C7.12158 2.83046 7.21342 2.73858 7.21342 2.62527V0.685272C7.21342 0.571926 7.12158 0.480083 7.00823 0.480083H5.34434C5.33261 0.479488 5.30655 0.478516 5.26814 0.478516C4.97943 0.478516 3.97592 0.535191 3.18327 1.26441C2.305 2.07252 2.42705 3.04008 2.45624 3.20787V4.75711H0.992298C0.878952 4.75711 0.787109 4.84896 0.787109 4.9623V7.04885C0.787109 7.16219 0.878995 7.25413 0.992341 7.25413Z" fill="#00463A"/>
</svg>
