<svg width="33" height="46" viewBox="0 0 33 46" fill="none" xmlns="http://www.w3.org/2000/svg">
<path d="M16.0039 12.5627L16.0039 45.4314" stroke="#DDF49B" stroke-width="1.03252" stroke-linecap="round"/>
<rect x="12.3038" y="0.0860435" width="7.22765" height="12.9065" rx="3.61383" fill="#DDF49B" stroke="#DDF49B" stroke-width="0.172087"/>
<path d="M20.1343 26.6729L16.3484 30.2867" stroke="#DDF49B" stroke-width="1.03252" stroke-linecap="round"/>
<rect x="27.1279" y="15.6592" width="7.39974" height="13.0786" rx="3.69987" transform="rotate(48.1811 27.1279 15.6592)" fill="#DDF49B"/>
<path d="M19.79 41.1282L16.0041 44.742" stroke="#DDF49B" stroke-width="1.03252" stroke-linecap="round"/>
<rect x="27.1279" y="29.9424" width="7.39974" height="13.0786" rx="3.69987" transform="rotate(48.1811 27.1279 29.9424)" fill="#DDF49B"/>
<path d="M11.9272 26.6729L15.7132 30.2867" stroke="#DDF49B" stroke-width="1.03252" stroke-linecap="round"/>
<rect width="7.39974" height="13.0786" rx="3.69987" transform="matrix(-0.666779 0.745256 0.745256 0.666779 4.93359 15.6592)" fill="#DDF49B"/>
<path d="M12.2715 41.1282L16.0574 44.742" stroke="#DDF49B" stroke-width="1.03252" stroke-linecap="round"/>
<rect width="7.39974" height="13.0786" rx="3.69987" transform="matrix(-0.666779 0.745256 0.745256 0.666779 4.93359 29.9424)" fill="#DDF49B"/>
</svg>
