<svg width="71" height="93" viewBox="0 0 71 93" fill="none" xmlns="http://www.w3.org/2000/svg">
<path d="M22.4085 60.4249V57.3499V23.3002C22.4085 20.2003 23.2426 17.5485 25.9442 15.8305C27.0371 15.0869 28.3171 14.6658 29.638 14.6152C30.9588 14.5645 32.2673 14.8864 33.4139 15.5442C34.617 16.1177 35.6285 17.027 36.3265 18.1624C37.0245 19.2978 37.3793 20.6108 37.348 21.9432V43.2196C38.5517 42.5594 39.8554 42.101 41.2074 41.8626C42.5524 41.7004 43.9166 41.8775 45.1757 42.3776C46.4347 42.8778 47.5486 43.6851 48.4157 44.726C48.5743 44.9758 48.8077 45.1692 49.0826 45.2788C49.3576 45.3883 49.66 45.4083 49.947 45.336C51.8356 44.892 53.8194 45.1081 55.568 45.9485C57.3167 46.7888 58.7248 48.2027 59.5581 49.9548C59.6652 50.2625 59.8776 50.5225 60.1578 50.6887C60.438 50.855 60.7679 50.917 61.0894 50.8636C62.3051 50.76 63.5292 50.904 64.6877 51.2868C65.8462 51.6697 66.9151 52.2834 67.8298 53.091C68.7444 53.8986 69.4858 54.8832 70.0091 55.9854C70.5325 57.0876 70.827 58.2844 70.8747 59.5036C71.26 68.3787 70.8015 77.2703 69.5053 86.0586C69.2439 87.7518 68.9202 89.42 68.721 91.1131C68.5467 92.5822 67.6005 92.3581 66.6917 92.1216C65.7829 91.885 64.5752 92.1963 64.9114 90.3786C66.6838 80.7442 67.4598 70.9528 67.227 61.1594C67.2965 59.7573 66.9823 58.3627 66.3182 57.1258C65.7082 56.0282 64.7062 55.2016 63.5126 54.8114C62.3191 54.4213 61.0222 54.4964 59.8818 55.0218C58.0517 55.7937 57.0681 55.2334 56.732 53.2415C56.6434 52.4407 56.356 51.6747 55.8957 51.0134C55.4355 50.352 54.8172 49.8163 54.097 49.455C53.3769 49.0936 52.5777 48.9182 51.7725 48.9446C50.9672 48.971 50.1813 49.1985 49.4864 49.6062C49.2388 49.8081 48.9461 49.947 48.6333 50.0112C48.3204 50.0754 47.9966 50.0629 47.6896 49.9748C47.3826 49.8868 47.1015 49.7257 46.8702 49.5055C46.6389 49.2852 46.4644 49.0122 46.3615 48.7099C45.2659 46.581 43.5728 45.473 41.7427 45.6722C40.6791 45.8215 39.6922 46.3107 38.9294 47.0668C38.1665 47.8229 37.6686 48.8054 37.5098 49.8677C37.1862 52.1086 35.6051 51.1126 34.5593 51.1749C33.1525 51.3243 33.5882 50.1042 33.5882 49.3946V23.2504C33.6131 22.786 33.6131 22.3205 33.5882 21.8561C33.5016 20.9314 33.0735 20.0722 32.3875 19.4461C31.7016 18.82 30.807 18.4719 29.8783 18.4698C28.9502 18.447 28.0482 18.7776 27.3548 19.3947C26.6614 20.0119 26.2283 20.8695 26.1434 21.7938C26.1059 22.4116 26.1059 23.0311 26.1434 23.6488V64.2345C26.1434 65.2927 26.2305 66.3385 24.8984 66.824C23.5663 67.3095 22.9563 66.5501 22.2218 65.8031L17.1548 60.7486C16.0175 59.6117 14.7011 58.6695 13.2581 57.9599C12.0511 57.3207 10.684 57.0475 9.32404 57.1735C7.96412 57.2995 6.67049 57.8194 5.60156 58.6695C4.70519 59.3045 4.5558 59.7651 5.46462 60.5245C6.70957 61.508 7.70554 62.6783 8.9007 63.6618C12.1871 66.4504 14.8905 69.8604 16.856 73.6962C17.8395 75.5263 18.9973 77.2568 19.9061 79.1242C22.1844 83.8177 26.0562 86.6811 30.6875 88.6979C31.2602 88.9469 32.1939 88.9345 32.1067 89.8557C32.0456 90.8627 31.705 91.8327 31.1232 92.6569C30.8618 93.0055 30.4509 92.7938 30.1148 92.6569C24.8113 90.5156 20.1551 87.565 17.2917 82.386C16.3829 80.7551 15.362 79.1864 14.5653 77.5057C11.7879 72.1245 7.89105 67.3999 3.13654 63.6494C2.33977 62.9771 1.63014 62.2301 0.858268 61.5329C0.615477 61.357 0.41336 61.1308 0.265623 60.8699C0.117885 60.609 0.02798 60.3193 0.00200378 60.0206C-0.0239724 59.7219 0.0145873 59.4211 0.115069 59.1385C0.21555 58.856 0.375604 58.5984 0.584377 58.3832C2.24186 55.9536 4.76872 54.2529 7.64358 53.632C10.5184 53.0112 13.5219 53.5176 16.0343 55.0467C18.4 56.5326 20.5457 58.343 22.4085 60.4249Z" fill="#228F53"/>
<path d="M36.1673 0.156427H55.2899C56.2135 0.115939 57.1355 0.267822 57.9973 0.602443C58.8592 0.937064 59.6421 1.44712 60.2964 2.10027C60.9507 2.75342 61.4622 3.53541 61.7983 4.39665C62.1345 5.25789 62.288 6.17959 62.2492 7.1033V18.1461C62.2818 19.057 62.1275 19.9649 61.7958 20.8138C61.464 21.6627 60.9619 22.4347 60.3203 23.0821C59.6787 23.7295 58.9113 24.2386 58.0654 24.5781C57.2195 24.9175 56.3131 25.08 55.4019 25.0556C51.5052 25.0556 47.6209 24.9809 43.7367 25.0556C42.1058 25.0556 42.305 24.1717 42.3299 23.1882C42.3548 22.2046 42.0062 21.2087 43.6869 21.2585C47.2599 21.3705 50.8329 21.2585 54.4184 21.2585C57.3814 21.2585 58.4894 20.1629 58.5019 17.2497V7.61373C58.5143 5.13626 57.2694 3.8913 54.7795 3.8913H17.4307C14.9408 3.8913 13.6958 5.13626 13.6958 7.62618V17.5858C13.6958 19.7396 14.4428 20.6235 16.5219 21.3207C18.2897 21.8561 17.2315 23.3127 17.3684 24.3211C17.5054 25.3295 16.4845 25.1178 15.8869 25.0681C14.2937 24.8895 12.8181 24.1432 11.7299 22.9659C10.6417 21.7886 10.0138 20.2588 9.96094 18.6565V6.68001C9.98706 4.9429 10.6947 3.28561 11.9313 2.06533C13.1678 0.84505 14.8344 0.159496 16.5717 0.156427H36.1673Z" fill="#228F53"/>
</svg>
