<svg width="157" height="46" viewBox="0 0 157 46" fill="none" xmlns="http://www.w3.org/2000/svg">
<path d="M150.732 45.2817H5.79737C2.61026 45.2817 0 42.7332 0 39.6215V5.66025C0 2.54855 2.61026 4.09188e-05 5.79737 4.09188e-05H150.732C153.919 4.09188e-05 156.529 2.54855 156.529 5.66025V39.6215C156.529 42.7332 153.919 45.2817 150.732 45.2817Z" fill="black"/>
<path d="M54.9785 11.5969C54.9785 12.5421 54.6886 13.2992 54.1176 13.8638C53.461 14.5331 52.6059 14.8699 51.558 14.8699C50.5566 14.8699 49.7014 14.5274 49 13.8525C48.297 13.1676 47.9463 12.327 47.9463 11.3209C47.9463 10.3148 48.297 9.47428 49 8.79506C49.7014 8.11442 50.5566 7.77197 51.558 7.77197C52.0566 7.77197 52.532 7.87244 52.9856 8.05923C53.4378 8.24743 53.806 8.50214 54.0727 8.81628L53.4668 9.41343C53.0016 8.87713 52.3682 8.61252 51.558 8.61252C50.8276 8.61252 50.1942 8.86156 49.6565 9.36391C49.1246 9.86767 48.8579 10.52 48.8579 11.3209C48.8579 12.1218 49.1246 12.7798 49.6565 13.2836C50.1942 13.7803 50.8276 14.035 51.558 14.035C52.3334 14.035 52.9857 13.7803 53.5002 13.2779C53.8393 12.9454 54.0321 12.4869 54.0828 11.9011H51.558V11.0832H54.9263C54.9669 11.2601 54.9785 11.4313 54.9785 11.5969Z" fill="white" stroke="white" stroke-width="0.122798" stroke-miterlimit="10"/>
<path d="M60.3223 8.76169H57.1584V10.9126H60.0107V11.7305H57.1584V13.8813H60.3223V14.7148H56.2627V7.92822H60.3223V8.76169Z" fill="white" stroke="white" stroke-width="0.122798" stroke-miterlimit="10"/>
<path d="M64.0942 14.7148H63.1985V8.76169H61.2578V7.92822H66.0363V8.76169H64.0942V14.7148Z" fill="white" stroke="white" stroke-width="0.122798" stroke-miterlimit="10"/>
<path d="M69.4941 14.7148V7.92822H70.3884V14.7148H69.4941Z" fill="white" stroke="white" stroke-width="0.122798" stroke-miterlimit="10"/>
<path d="M74.353 14.7148H73.4645V8.76169H71.5166V7.92822H76.3009V8.76169H74.353V14.7148Z" fill="white" stroke="white" stroke-width="0.122798" stroke-miterlimit="10"/>
<path d="M85.3471 13.8411C84.6615 14.5274 83.8122 14.8699 82.7991 14.8699C81.7802 14.8699 80.9309 14.5274 80.2454 13.8411C79.5613 13.1562 79.2207 12.3157 79.2207 11.3209C79.2207 10.3261 79.5613 9.4856 80.2454 8.80072C80.9309 8.11442 81.7802 7.77197 82.7991 7.77197C83.8064 7.77197 84.6557 8.11442 85.3413 8.80638C86.0312 9.49692 86.3718 10.3318 86.3718 11.3209C86.3718 12.3157 86.0312 13.1562 85.3471 13.8411ZM80.9077 13.2723C81.4237 13.7803 82.0513 14.035 82.7991 14.035C83.5412 14.035 84.1746 13.7803 84.6847 13.2723C85.1992 12.7643 85.4601 12.1119 85.4601 11.3209C85.4601 10.5299 85.1992 9.87757 84.6847 9.36957C84.1746 8.86156 83.5412 8.60685 82.7991 8.60685C82.0513 8.60685 81.4237 8.86156 80.9077 9.36957C80.3932 9.87757 80.1323 10.5299 80.1323 11.3209C80.1323 12.1119 80.3932 12.7643 80.9077 13.2723Z" fill="white" stroke="white" stroke-width="0.122798" stroke-miterlimit="10"/>
<path d="M87.6289 14.7148V7.92822H88.7159L92.0958 13.2064H92.1349L92.0958 11.9017V7.92822H92.99V14.7148H92.0566L88.5174 9.1763H88.4782L88.5174 10.4866V14.7148H87.6289Z" fill="white" stroke="white" stroke-width="0.122798" stroke-miterlimit="10"/>
<path d="M79.0009 24.6253C76.2776 24.6253 74.0528 26.6489 74.0528 29.4408C74.0528 32.21 76.2776 34.2548 79.0009 34.2548C81.73 34.2548 83.9547 32.21 83.9547 29.4408C83.9547 26.6489 81.73 24.6253 79.0009 24.6253ZM79.0009 32.3586C77.5066 32.3586 76.221 31.1544 76.221 29.4408C76.221 27.7045 77.5066 26.5215 79.0009 26.5215C80.4951 26.5215 81.7865 27.7045 81.7865 29.4408C81.7865 31.1544 80.4951 32.3586 79.0009 32.3586ZM68.2047 24.6253C65.4756 24.6253 63.2567 26.6489 63.2567 29.4408C63.2567 32.21 65.4756 34.2548 68.2047 34.2548C70.9324 34.2548 73.1528 32.21 73.1528 29.4408C73.1528 26.6489 70.9324 24.6253 68.2047 24.6253ZM68.2047 32.3586C66.709 32.3586 65.4191 31.1544 65.4191 29.4408C65.4191 27.7045 66.709 26.5215 68.2047 26.5215C69.699 26.5215 70.9846 27.7045 70.9846 29.4408C70.9846 31.1544 69.699 32.3586 68.2047 32.3586ZM55.3578 26.1012V28.1474H60.3623C60.216 29.2908 59.8246 30.1313 59.2246 30.7171C58.4941 31.4247 57.3564 32.21 55.3578 32.21C52.2779 32.21 49.8662 29.7832 49.8662 26.7762C49.8662 23.7692 52.2779 21.3424 55.3578 21.3424C57.0231 21.3424 58.2347 21.9778 59.129 22.8013L60.6058 21.3594C59.3551 20.1934 57.6912 19.2977 55.3578 19.2977C51.1344 19.2977 47.585 22.6528 47.585 26.7762C47.585 30.8997 51.1344 34.2548 55.3578 34.2548C57.6405 34.2548 59.3551 33.5246 60.7029 32.1548C62.0842 30.8063 62.5146 28.9101 62.5146 27.379C62.5146 26.9036 62.474 26.4663 62.4016 26.1012H55.3578ZM107.891 27.6875C107.483 26.6107 106.227 24.6253 103.667 24.6253C101.131 24.6253 99.0192 26.5767 99.0192 29.4408C99.0192 32.1379 101.109 34.2548 103.911 34.2548C106.176 34.2548 107.483 32.9062 108.021 32.1209L106.34 31.027C105.779 31.828 105.015 32.3586 103.911 32.3586C102.814 32.3586 102.027 31.8676 101.522 30.8997L108.118 28.2351L107.891 27.6875ZM101.166 29.2908C101.109 27.4342 102.643 26.4833 103.741 26.4833C104.602 26.4833 105.333 26.9036 105.576 27.505L101.166 29.2908ZM95.8045 33.9619H97.9728V19.8113H95.8045V33.9619ZM92.2537 25.6979H92.1812C91.6942 25.1348 90.7652 24.6253 89.5883 24.6253C87.1186 24.6253 84.8606 26.7423 84.8606 29.4563C84.8606 32.1548 87.1186 34.2548 89.5883 34.2548C90.7652 34.2548 91.6942 33.7411 92.1812 33.1609H92.2537V33.8515C92.2537 35.6925 91.2464 36.6816 89.6216 36.6816C88.297 36.6816 87.4752 35.7477 87.136 34.9623L85.2504 35.7307C85.7939 37.0071 87.2331 38.5778 89.6216 38.5778C92.1638 38.5778 94.3088 37.1174 94.3088 33.5642V24.9183H92.2537V25.6979ZM89.7738 32.3586C88.2796 32.3586 87.0288 31.1374 87.0288 29.4563C87.0288 27.7597 88.2796 26.5215 89.7738 26.5215C91.2464 26.5215 92.4073 27.7597 92.4073 29.4563C92.4073 31.1374 91.2464 32.3586 89.7738 32.3586ZM118.042 19.8113H112.856V33.9619H115.018V28.6002H118.042C120.443 28.6002 122.799 26.9036 122.799 24.2051C122.799 21.508 120.438 19.8113 118.042 19.8113ZM118.098 26.6319H115.018V21.7797H118.098C119.713 21.7797 120.635 23.0886 120.635 24.2051C120.635 25.3003 119.713 26.6319 118.098 26.6319ZM131.466 24.5985C129.903 24.5985 128.278 25.272 127.61 26.7649L129.529 27.5503C129.942 26.7649 130.702 26.5102 131.505 26.5102C132.627 26.5102 133.764 27.1682 133.782 28.3299V28.4785C133.39 28.2578 132.553 27.9309 131.522 27.9309C129.455 27.9309 127.349 29.0417 127.349 31.1148C127.349 33.0109 129.042 34.2321 130.945 34.2321C132.4 34.2321 133.203 33.5911 133.708 32.8454H133.782V33.9392H135.87V28.5111C135.87 26.0022 133.951 24.5985 131.466 24.5985ZM131.205 32.3529C130.497 32.3529 129.512 32.0105 129.512 31.1544C129.512 30.0591 130.741 29.6389 131.805 29.6389C132.757 29.6389 133.203 29.8441 133.782 30.1143C133.612 31.4247 132.457 32.3529 131.205 32.3529ZM143.479 24.9083L140.994 31.0426H140.92L138.35 24.9083H136.018L139.879 33.4807L137.676 38.2509H139.936L145.885 24.9083H143.479ZM123.987 33.9619H126.155V19.8113H123.987V33.9619Z" fill="white"/>
<path d="M12.0992 8.53443C11.7586 8.88253 11.5615 9.42449 11.5615 10.1264V35.1615C11.5615 35.8634 11.7586 36.4053 12.0992 36.7534L12.1833 36.8298L26.5521 22.8067V22.4755L12.1833 8.45236L12.0992 8.53443Z" fill="url(#paint0_linear_7961_608)"/>
<path d="M31.336 27.4836L26.5518 22.8069V22.4758L31.3418 17.799L31.4491 17.8599L37.1218 21.0112C38.7407 21.9055 38.7407 23.3772 37.1218 24.2771L31.4491 27.4228L31.336 27.4836Z" fill="url(#paint1_linear_7961_608)"/>
<path d="M31.4488 27.4221L26.5515 22.6407L12.0986 36.753C12.6363 37.3049 13.5132 37.3714 14.5103 36.8195L31.4488 27.4221Z" fill="url(#paint2_linear_7961_608)"/>
<path d="M31.4488 17.8597L14.5103 8.46228C13.5132 7.91607 12.6363 7.98258 12.0986 8.53445L26.5515 22.6411L31.4488 17.8597Z" fill="url(#paint3_linear_7961_608)"/>
<defs>
<linearGradient id="paint0_linear_7961_608" x1="25.2763" y1="35.4222" x2="6.28334" y2="15.969" gradientUnits="userSpaceOnUse">
<stop stop-color="#00A0FF"/>
<stop offset="0.0066" stop-color="#00A1FF"/>
<stop offset="0.2601" stop-color="#00BEFF"/>
<stop offset="0.5122" stop-color="#00D2FF"/>
<stop offset="0.7604" stop-color="#00DFFF"/>
<stop offset="1" stop-color="#00E3FF"/>
</linearGradient>
<linearGradient id="paint1_linear_7961_608" x1="39.2299" y1="22.6397" x2="11.1742" y2="22.6397" gradientUnits="userSpaceOnUse">
<stop stop-color="#FFE000"/>
<stop offset="0.4087" stop-color="#FFBD00"/>
<stop offset="0.7754" stop-color="#FFA500"/>
<stop offset="1" stop-color="#FF9C00"/>
</linearGradient>
<linearGradient id="paint2_linear_7961_608" x1="28.7858" y1="20.0414" x2="3.02979" y2="-6.33868" gradientUnits="userSpaceOnUse">
<stop stop-color="#FF3A44"/>
<stop offset="1" stop-color="#C31162"/>
</linearGradient>
<linearGradient id="paint3_linear_7961_608" x1="8.46055" y1="45.0825" x2="19.9618" y2="33.3027" gradientUnits="userSpaceOnUse">
<stop stop-color="#32A071"/>
<stop offset="0.0685" stop-color="#2DA771"/>
<stop offset="0.4762" stop-color="#15CF74"/>
<stop offset="0.8009" stop-color="#06E775"/>
<stop offset="1" stop-color="#00F076"/>
</linearGradient>
</defs>
</svg>
