<svg width="17" height="17" viewBox="0 0 17 17" fill="none" xmlns="http://www.w3.org/2000/svg">
<path d="M8.22537 1.65333C10.3642 1.65333 10.6174 1.66266 11.4586 1.70018C12.2403 1.73453 12.6624 1.86586 12.9438 1.97525C13.3159 2.11899 13.5848 2.29399 13.8631 2.57223C14.1445 2.85354 14.3165 3.11918 14.4603 3.49113C14.5698 3.77244 14.7011 4.1975 14.7355 4.97582C14.773 5.81968 14.7824 6.0729 14.7824 8.20769C14.7824 10.3456 14.773 10.5988 14.7355 11.4396C14.7011 12.221 14.5698 12.6429 14.4603 12.9243C14.3165 13.2962 14.1414 13.565 13.8631 13.8432C13.5817 14.1245 13.3159 14.2964 12.9438 14.4401C12.6624 14.5495 12.2371 14.6808 11.4586 14.7152C10.6143 14.7527 10.3611 14.7621 8.22537 14.7621C6.08666 14.7621 5.83335 14.7527 4.99224 14.7152C4.21053 14.6808 3.78848 14.5495 3.50705 14.4401C3.13496 14.2964 2.86605 14.1214 2.58771 13.8432C2.30628 13.5618 2.13438 13.2962 1.99049 12.9243C1.88106 12.6429 1.74977 12.2179 1.71532 11.4396C1.67779 10.5957 1.66845 10.3425 1.66845 8.20769C1.66845 6.06973 1.67779 5.8166 1.71532 4.97582C1.74977 4.19441 1.88106 3.77244 1.99049 3.49113C2.13438 3.11918 2.30945 2.85037 2.58771 2.57223C2.86913 2.29091 3.13496 2.11899 3.50705 1.97525C3.78848 1.86586 4.2137 1.73453 4.99224 1.70018C5.83335 1.66266 6.08666 1.65333 8.22537 1.65333ZM8.22537 0.212402C6.0523 0.212402 5.78022 0.221738 4.9266 0.259259C4.07607 0.296779 3.49137 0.434266 2.98482 0.631204C2.45642 0.837479 2.00926 1.10946 1.56527 1.55636C1.11811 2.00026 0.846111 2.44716 0.639756 2.97227C0.442741 3.48179 0.305112 4.06309 0.267665 4.91329C0.23013 5.76974 0.220703 6.04163 0.220703 8.21394C0.220703 10.3863 0.23013 10.6581 0.267665 11.5114C0.305112 12.3616 0.442741 12.9461 0.639756 13.4524C0.846111 13.9807 1.11811 14.4276 1.56527 14.8715C2.00926 15.3153 2.45642 15.5904 2.98174 15.7935C3.49137 15.9904 4.07299 16.128 4.92352 16.1655C5.77713 16.203 6.04913 16.2124 8.22229 16.2124C10.3954 16.2124 10.6674 16.203 11.5211 16.1655C12.3716 16.128 12.9563 15.9904 13.4628 15.7935C13.9882 15.5904 14.4353 15.3153 14.8793 14.8715C15.3233 14.4276 15.5985 13.9807 15.8017 13.4556C15.9988 12.9461 16.1363 12.3647 16.1738 11.5146C16.2114 10.6613 16.2207 10.3893 16.2207 8.21703C16.2207 6.0448 16.2114 5.77283 16.1738 4.91954C16.1363 4.06934 15.9988 3.48487 15.8017 2.97852C15.6047 2.44716 15.3327 2.00026 14.8856 1.55636C14.4416 1.11254 13.9944 0.837478 13.4691 0.634374C12.9595 0.437436 12.3778 0.299863 11.5273 0.26243C10.6706 0.221739 10.3985 0.212402 8.22537 0.212402Z" fill="#00463A"/>
<path d="M8.2207 4.2124C6.01233 4.2124 4.2207 6.00403 4.2207 8.2124C4.2207 10.4208 6.01233 12.2124 8.2207 12.2124C10.4291 12.2124 12.2207 10.4208 12.2207 8.2124C12.2207 6.00403 10.4291 4.2124 8.2207 4.2124ZM8.2207 10.8071C6.78797 10.8071 5.62601 9.64505 5.62601 8.2124C5.62601 6.77967 6.78797 5.61771 8.2207 5.61771C9.65344 5.61771 10.8154 6.77967 10.8154 8.2124C10.8154 9.64505 9.65344 10.8071 8.2207 10.8071Z" fill="#00463A"/>
<path d="M13.2207 4.21236C13.2207 4.76612 12.7712 5.2124 12.2208 5.2124C11.667 5.2124 11.2207 4.76291 11.2207 4.21236C11.2207 3.65859 11.6702 3.2124 12.2208 3.2124C12.7712 3.2124 13.2207 3.6619 13.2207 4.21236Z" fill="#00463A"/>
</svg>
