<svg width="81" height="47" viewBox="0 0 81 47" fill="none" xmlns="http://www.w3.org/2000/svg">
<path d="M16.9731 13.3472L16.9731 46.2158" stroke="white" stroke-width="1.03252" stroke-linecap="round"/>
<rect x="13.2731" y="0.870467" width="7.22765" height="12.9065" rx="3.61383" fill="white" stroke="white" stroke-width="0.172087"/>
<path d="M21.1035 27.4573L17.3176 31.0711" stroke="white" stroke-width="1.03252" stroke-linecap="round"/>
<rect x="28.0967" y="16.4436" width="7.39974" height="13.0786" rx="3.69987" transform="rotate(48.1811 28.0967 16.4436)" fill="white"/>
<path d="M20.7598 41.9126L16.9739 45.5264" stroke="white" stroke-width="1.03252" stroke-linecap="round"/>
<rect x="28.0972" y="30.7268" width="7.39974" height="13.0786" rx="3.69987" transform="rotate(48.1811 28.0972 30.7268)" fill="white"/>
<path d="M12.8965 27.4573L16.6824 31.0711" stroke="white" stroke-width="1.03252" stroke-linecap="round"/>
<rect width="7.39974" height="13.0786" rx="3.69987" transform="matrix(-0.666779 0.745256 0.745256 0.666779 5.90332 16.4436)" fill="white"/>
<path d="M13.2402 41.9126L17.0261 45.5264" stroke="white" stroke-width="1.03252" stroke-linecap="round"/>
<rect width="7.39974" height="13.0786" rx="3.69987" transform="matrix(-0.666779 0.745256 0.745256 0.666779 5.90283 30.7268)" fill="white"/>
<path d="M42.0791 30V28.5234L48.7907 18.897H42.0407V16.9091H51.731V18.3857L45.0258 28.0121H51.7694V30H42.0791ZM58.3085 30.1918C57.3241 30.1918 56.4739 29.9872 55.758 29.5781C55.0464 29.1648 54.4988 28.581 54.1153 27.8267C53.7318 27.0682 53.54 26.1754 53.54 25.1484C53.54 24.1385 53.7318 23.2521 54.1153 22.4893C54.5031 21.7223 55.0443 21.1257 55.7389 20.6996C56.4335 20.2692 57.2495 20.054 58.187 20.054C58.7921 20.054 59.3631 20.152 59.9001 20.348C60.4413 20.5398 60.9185 20.8381 61.3319 21.2429C61.7495 21.6477 62.0776 22.1634 62.3163 22.7898C62.5549 23.4119 62.6742 24.1534 62.6742 25.0142V25.7237H54.6266V24.1641H60.4562C60.4519 23.7209 60.356 23.3267 60.1685 22.9815C59.981 22.6321 59.719 22.3572 59.3823 22.157C59.0499 21.9567 58.6622 21.8565 58.219 21.8565C57.746 21.8565 57.3305 21.9716 56.9725 22.2017C56.6146 22.4276 56.3354 22.7259 56.1352 23.0966C55.9391 23.4631 55.839 23.8658 55.8347 24.3047V25.6662C55.8347 26.2372 55.9391 26.7273 56.1479 27.1364C56.3568 27.5412 56.6487 27.8523 57.0237 28.0696C57.3987 28.2827 57.8376 28.3892 58.3404 28.3892C58.6771 28.3892 58.9818 28.3423 59.2545 28.2486C59.5272 28.1506 59.7637 28.0078 59.964 27.8203C60.1643 27.6328 60.3156 27.4006 60.4178 27.1236L62.5783 27.3665C62.442 27.9375 62.182 28.4361 61.7985 28.8622C61.4193 29.2841 60.9335 29.6122 60.3411 29.8466C59.7488 30.0767 59.0712 30.1918 58.3085 30.1918ZM64.6318 30V20.1818H66.8754V21.8182H66.9777C67.1566 21.2514 67.4635 20.8146 67.8981 20.5078C68.337 20.1967 68.8378 20.0412 69.4003 20.0412C69.5281 20.0412 69.6709 20.0476 69.8285 20.0604C69.9905 20.0689 70.1247 20.0838 70.2312 20.1051V22.2337C70.1332 22.1996 69.9777 22.1697 69.7646 22.1442C69.5558 22.1143 69.3534 22.0994 69.1574 22.0994C68.7355 22.0994 68.3562 22.1911 68.0196 22.3743C67.6872 22.5533 67.4251 22.8026 67.2334 23.1222C67.0416 23.4418 66.9457 23.8104 66.9457 24.228V30H64.6318ZM74.418 30.1982C73.7959 30.1982 73.2355 30.0874 72.7369 29.8658C72.2426 29.6399 71.8505 29.3075 71.5608 28.8686C71.2753 28.4297 71.1325 27.8885 71.1325 27.245C71.1325 26.6911 71.2348 26.233 71.4393 25.8707C71.6439 25.5085 71.923 25.2188 72.2767 25.0014C72.6304 24.7841 73.0288 24.62 73.472 24.5092C73.9194 24.3942 74.3818 24.3111 74.8591 24.2599C75.4343 24.2003 75.901 24.147 76.2589 24.1001C76.6169 24.049 76.8768 23.9723 77.0388 23.87C77.2049 23.7635 77.288 23.5994 77.288 23.3778V23.3395C77.288 22.858 77.1453 22.4851 76.8598 22.2209C76.5743 21.9567 76.163 21.8246 75.6261 21.8246C75.0593 21.8246 74.6098 21.9482 74.2774 22.1953C73.9493 22.4425 73.7277 22.7344 73.6126 23.071L71.4521 22.7642C71.6226 22.1676 71.9038 21.669 72.2959 21.2685C72.6879 20.8636 73.1673 20.5611 73.7341 20.3608C74.3008 20.1562 74.9272 20.054 75.6133 20.054C76.0863 20.054 76.5572 20.1094 77.026 20.2202C77.4947 20.331 77.923 20.5142 78.3108 20.7699C78.6986 21.0213 79.0096 21.3643 79.244 21.799C79.4826 22.2337 79.602 22.777 79.602 23.429V30H77.3775V28.6513H77.3008C77.1602 28.924 76.962 29.1797 76.7064 29.4183C76.4549 29.6527 76.1375 29.8423 75.754 29.9872C75.3747 30.1278 74.9294 30.1982 74.418 30.1982ZM75.0189 28.4979C75.4834 28.4979 75.8861 28.4062 76.227 28.223C76.5679 28.0355 76.8299 27.7884 77.0132 27.4815C77.2007 27.1747 77.2944 26.8402 77.2944 26.478V25.321C77.222 25.3807 77.0984 25.4361 76.9237 25.4872C76.7532 25.5384 76.5615 25.5831 76.3484 25.6214C76.1353 25.6598 75.9244 25.6939 75.7156 25.7237C75.5068 25.7536 75.3257 25.7791 75.1723 25.8004C74.8271 25.8473 74.5182 25.924 74.2454 26.0305C73.9727 26.1371 73.7575 26.2862 73.5998 26.478C73.4422 26.6655 73.3633 26.9084 73.3633 27.2067C73.3633 27.6328 73.5189 27.9545 73.8299 28.1719C74.141 28.3892 74.5373 28.4979 75.0189 28.4979Z" fill="white"/>
</svg>
