<svg width="93" height="93" viewBox="0 0 93 93" fill="none" xmlns="http://www.w3.org/2000/svg">
<path d="M47.3914 4.88041e-05C38.2173 -0.17511 29.1966 2.36934 21.4662 7.31273C13.7359 12.2561 7.64188 19.3772 3.9522 27.7785C0.262527 36.1797 -0.857666 45.4852 0.732805 54.5221C2.32328 63.559 6.55323 71.9229 12.8896 78.5596C19.2259 85.1963 27.385 89.8089 36.3386 91.8159C45.2922 93.823 54.6395 93.1347 63.2026 89.8379C71.7656 86.541 79.1612 80.7831 84.457 73.2899C89.7529 65.7966 92.7122 56.9034 92.9619 47.731C93.112 41.6026 92.0516 35.5048 89.8412 29.7869C87.6309 24.0691 84.3141 18.8435 80.0809 14.4096C75.8477 9.97567 70.7812 6.42056 65.1718 3.94792C59.5623 1.47528 53.5201 0.133702 47.3914 4.88041e-05ZM50.2552 88.9429C45.5341 89.4297 40.7643 89.0853 36.162 87.9255C30.1719 86.4315 24.5775 83.6548 19.7656 79.7871C14.9536 75.9194 11.0389 71.053 8.29178 65.5242C5.5447 59.9954 4.03084 53.9361 3.85482 47.7649C3.67879 41.5938 4.84479 35.458 7.27225 29.7817C7.4242 29.1149 7.80678 28.5232 8.35247 28.1111C9.11868 31.2638 8.71674 34.3035 8.7293 37.3181C8.70862 37.9332 8.82271 38.5453 9.06355 39.1116C9.3044 39.6779 9.66618 40.1847 10.1235 40.5965C13.3768 43.7744 16.5798 47.015 19.7451 50.2683C20.5468 51.1234 21.5217 51.7977 22.6047 52.2461C23.6877 52.6945 24.8539 52.9066 26.0255 52.8684C33.7378 52.8684 31.4643 51.9263 36.7021 57.2646C37.3886 57.9683 38.2343 58.4965 39.1677 58.8048C40.1012 59.113 41.0951 59.1922 42.0656 59.0357C42.6936 59.0357 43.5352 58.7468 43.8618 59.5758C44.1884 60.4048 43.3719 60.6309 42.9825 61.0705C42.3545 61.7614 41.6511 62.402 40.9979 63.0677C40.7095 63.378 40.445 63.7097 40.2066 64.06C37.908 67.263 38.4732 75.0758 41.2366 77.8769C44 80.6779 47.0774 83.7176 50.0291 86.6694C50.366 86.9956 50.6807 87.3439 50.9712 87.712C51.3857 88.3902 51.4234 88.8299 50.2552 88.9429ZM86.3675 61.6232C80.7277 75.3647 70.8298 84.1573 56.5356 87.9255C55.5433 88.1893 55.1539 88.0134 54.9153 87.0086C54.5827 85.9564 53.9705 85.0143 53.1442 84.2829C50.205 81.3813 47.316 78.417 44.3517 75.4903C43.3739 74.4701 42.7945 73.1331 42.7188 71.7221C42.1535 67.8408 43.7236 65.0774 46.6 62.7788C48.3209 61.4097 47.9566 59.6135 47.4416 57.9052C47.1944 57.0639 46.6614 56.3351 45.9346 55.8444C45.2078 55.3538 44.3326 55.132 43.4599 55.2172C42.4338 55.3668 41.3864 55.226 40.4362 54.8109C39.4861 54.3958 38.6712 53.7228 38.0838 52.8684C37.4113 52.066 36.6717 51.3222 35.8731 50.6451C34.6617 49.5291 33.0603 48.9336 31.4141 48.9871C31.1008 48.9556 30.7852 48.9556 30.472 48.9871C25.7868 49.8412 22.2698 48.1078 19.3683 44.4024C17.5185 42.2678 15.5295 40.2579 13.4145 38.3858C13.139 38.1409 12.9209 37.8384 12.7754 37.4998C12.63 37.1611 12.5609 36.7947 12.5729 36.4263C12.9284 32.1356 12.5028 27.816 11.3168 23.6771C11.2198 23.3805 11.2013 23.0638 11.2629 22.7579C11.3245 22.4519 11.4643 22.1671 11.6685 21.9312C14.9124 17.3218 19.0405 13.4034 23.8125 10.4039C28.5846 7.40435 33.9054 5.38359 39.4655 4.45913C44.679 3.55194 50.0185 3.65856 55.1916 4.77314C55.4805 4.83595 55.7694 4.93643 56.1588 5.04948C55.6689 6.02922 54.2244 6.53165 55.267 7.71237C55.9686 8.40596 56.7155 9.05217 57.5028 9.64673C57.1762 9.94818 57.0883 10.0738 57.0381 10.0612C55.9517 9.88283 54.837 10.0255 53.8306 10.4718C52.8243 10.9181 51.9702 11.6485 51.3731 12.5734C50.3823 13.7191 49.312 14.7936 48.1701 15.7889C47.0899 16.7812 46.1604 17.7861 46.4744 19.4065C46.5139 19.6436 46.4767 19.8872 46.3683 20.1018C46.2599 20.3164 46.0858 20.4908 45.8715 20.5997C42.9072 22.6094 42.254 25.4231 42.7188 28.7265C42.8821 29.8821 42.4927 30.3218 41.2743 30.2087C40.5206 30.1459 40.2317 30.0454 40.1689 29.1787C40.1578 28.6245 40.0357 28.0781 39.8097 27.5719C39.5837 27.0658 39.2585 26.6101 38.8533 26.2318C38.448 25.8535 37.9711 25.5603 37.4506 25.3696C36.93 25.179 36.3766 25.0946 35.8229 25.1216H29.241C27.8298 25.1504 26.4841 25.723 25.4848 26.72C24.4854 27.7169 23.9097 29.0613 23.8776 30.4725V34.8688C23.9199 36.2917 24.5135 37.6426 25.5329 38.6363C26.5523 39.6299 27.9179 40.1887 29.3415 40.1945H32.4817C33.5243 40.1945 34.0518 40.609 33.9262 41.6641C33.8749 42.0934 33.9319 42.5287 34.0921 42.9302C34.2522 43.3317 34.5105 43.6867 34.8432 43.9628C36.677 45.7631 38.49 47.5761 40.282 49.4016C40.5941 49.7226 40.9771 49.9659 41.4003 50.1121C41.8235 50.2582 42.2751 50.3031 42.7188 50.2432H46.801C47.2882 50.3388 47.792 50.3044 48.2617 50.1434C48.7314 49.9825 49.1503 49.7006 49.4765 49.3262C49.8156 48.8866 50.318 48.9745 50.7325 48.9745H59.5251C60.0999 48.9347 60.6763 49.0272 61.2098 49.2449C61.7433 49.4627 62.2197 49.7999 62.6025 50.2306C64.7378 52.7428 67.2123 54.3882 70.7544 53.9988C72.2115 53.8481 72.8269 54.9158 72.8772 56.3351C73.053 60.2792 73.0656 60.2667 76.9594 60.2667H85.438C86.4554 60.2918 86.8322 60.4802 86.3675 61.6232ZM86.6815 56.5235C85.2244 56.4231 83.7548 56.5235 82.2978 56.5235H77.7508C76.8966 56.5235 76.5952 56.3351 76.5701 55.4056C76.4696 51.5244 75.0753 50.1175 71.1815 50.2808C70.1469 50.4068 69.0975 50.2583 68.1384 49.8505C67.1794 49.4426 66.3445 48.7896 65.7176 47.9571C64.9563 46.9675 63.9496 46.1942 62.7972 45.7139C61.6449 45.2335 60.3869 45.0629 59.1483 45.2188C55.7066 45.3947 52.2398 45.2188 48.7982 45.2188C48.2246 45.1571 47.6466 45.285 47.1527 45.5831C45.1556 46.9899 43.6859 46.8392 41.9651 45.2314C41.2115 44.5029 40.4704 43.7618 39.6916 43.0835C39.1022 42.6726 38.6016 42.1472 38.2196 41.5386C37.8376 40.9301 37.5821 40.2508 37.4684 39.5414C37.2908 38.6274 36.7886 37.8086 36.0544 37.236C35.3202 36.6635 34.4037 36.3759 33.474 36.4263H29.8691C29.5804 36.4514 29.2898 36.4149 29.0163 36.3192C28.7428 36.2236 28.4927 36.071 28.2825 35.8716C28.0724 35.6721 27.907 35.4303 27.7972 35.1622C27.6875 34.894 27.6359 34.6057 27.6458 34.3161V34.1654C27.6458 29.2918 27.2439 28.7517 32.5697 28.9275C32.9337 28.9464 33.2984 28.9464 33.6624 28.9275C35.3205 28.7642 36.4258 28.8647 36.5891 31.1257C36.7524 33.3866 39.1766 34.3287 43.1584 33.9393C44.0996 33.8294 44.9648 33.3689 45.5817 32.6496C46.1986 31.9303 46.5218 31.0049 46.487 30.058V26.7671C46.4266 26.3042 46.4901 25.8335 46.6711 25.4032C46.852 24.9729 47.1439 24.5983 47.517 24.3177C48.2329 23.7022 48.861 22.9988 49.5141 22.3331C49.891 21.9563 50.3557 21.5669 50.2427 21.0017C49.8784 19.2808 50.9461 18.3011 52.064 17.3339C52.3103 17.1379 52.5336 16.9145 52.7297 16.6682C53.4178 15.5975 54.4081 14.755 55.5753 14.2474C56.7425 13.7398 58.034 13.59 59.2864 13.8169C60.9445 14.0304 61.5474 13.2768 61.5474 11.6062C61.5474 10.124 61.9368 8.51626 60.3792 7.46115C60.1154 7.2853 59.9396 7.00896 60.2285 6.68238C60.3368 6.53557 60.4963 6.43475 60.6754 6.39986C60.8545 6.36497 61.0401 6.39856 61.1957 6.49397C62.5397 7.08433 63.9339 7.56164 65.2151 8.23992C79.032 15.5377 87.1211 26.8675 88.9173 42.5183C89.3328 46.7785 89.0998 51.0771 88.2265 55.2675C88.0632 56.2095 87.7366 56.6366 86.6815 56.5235Z" fill="#228F53"/>
</svg>
